<svg width="285" height="34" viewBox="0 0 285 34" fill="none" xmlns="http://www.w3.org/2000/svg">
<path d="M31.952 24.64C32.304 24.64 32.608 24.768 32.864 25.024C33.12 25.28 33.248 25.584 33.248 25.936V32.704C33.248 33.056 33.12 33.36 32.864 33.616C32.608 33.872 32.304 34 31.952 34H1.616C1.264 34 0.96 33.872 0.704 33.616C0.448 33.36 0.32 33.056 0.32 32.704V1.696C0.32 1.344 0.448 1.04 0.704 0.783998C0.96 0.527998 1.264 0.399998 1.616 0.399998H31.472C31.824 0.399998 32.128 0.527998 32.384 0.783998C32.64 1.04 32.768 1.344 32.768 1.696V8.464C32.768 8.816 32.64 9.12 32.384 9.376C32.128 9.632 31.824 9.76 31.472 9.76H12.8V12.784H28.832C29.184 12.784 29.488 12.912 29.744 13.168C30 13.424 30.128 13.728 30.128 14.08V20.32C30.128 20.672 30 20.976 29.744 21.232C29.488 21.488 29.184 21.616 28.832 21.616H12.8V24.64H31.952Z" fill="#ECECEC"/>
<path d="M46.6 19.08C48.0667 19.24 49.24 19.5 50.12 19.86C51.0133 20.22 51.66 20.6933 52.06 21.28C52.46 21.8667 52.66 22.6 52.66 23.48C52.66 24.44 52.3467 25.28 51.72 26C51.1067 26.7067 50.2533 27.2533 49.16 27.64C48.0667 28.0133 46.82 28.2 45.42 28.2C43.86 28.2 42.54 28.0067 41.46 27.62C40.38 27.2333 39.5733 26.72 39.04 26.08C38.5067 25.4267 38.24 24.7133 38.24 23.94C38.24 23.8067 38.28 23.7 38.36 23.62C38.4533 23.54 38.5667 23.5 38.7 23.5H42.8C43.08 23.5 43.3067 23.5867 43.48 23.76C43.7067 23.9733 43.96 24.12 44.24 24.2C44.52 24.2667 44.9133 24.3 45.42 24.3C46.6867 24.3 47.32 24.1067 47.32 23.72C47.32 23.56 47.2333 23.4267 47.06 23.32C46.9 23.2 46.6067 23.1 46.18 23.02C45.7667 22.9267 45.1533 22.8333 44.34 22.74C42.5133 22.5267 41.1133 22.0733 40.14 21.38C39.1667 20.6733 38.68 19.68 38.68 18.4C38.68 17.4933 38.9533 16.6933 39.5 16C40.0467 15.3067 40.82 14.7667 41.82 14.38C42.8333 13.9933 44.0067 13.8 45.34 13.8C46.7267 13.8 47.94 14.02 48.98 14.46C50.02 14.8867 50.8133 15.42 51.36 16.06C51.9067 16.7 52.18 17.3267 52.18 17.94C52.18 18.0733 52.1333 18.18 52.04 18.26C51.96 18.34 51.8467 18.38 51.7 18.38H47.4C47.1733 18.38 46.9667 18.3 46.78 18.14C46.6333 18.0067 46.46 17.9 46.26 17.82C46.06 17.74 45.7533 17.7 45.34 17.7C44.4467 17.7 44 17.8867 44 18.26C44 18.46 44.1733 18.62 44.52 18.74C44.8667 18.8467 45.56 18.96 46.6 19.08ZM69.3922 14C69.5389 14 69.6655 14.0533 69.7722 14.16C69.8789 14.2667 69.9322 14.3933 69.9322 14.54V17.76C69.9322 17.9067 69.8789 18.0333 69.7722 18.14C69.6655 18.2467 69.5389 18.3 69.3922 18.3H65.0922V27.46C65.0922 27.6067 65.0389 27.7333 64.9322 27.84C64.8255 27.9467 64.6989 28 64.5522 28H60.4322C60.2855 28 60.1589 27.9467 60.0522 27.84C59.9455 27.7333 59.8922 27.6067 59.8922 27.46V18.3H55.5922C55.4455 18.3 55.3189 18.2467 55.2122 18.14C55.1055 18.0333 55.0522 17.9067 55.0522 17.76V14.54C55.0522 14.3933 55.1055 14.2667 55.2122 14.16C55.3189 14.0533 55.4455 14 55.5922 14H69.3922ZM76.6044 27.32C76.431 27.7733 76.131 28 75.7044 28H71.9244C71.8044 28 71.6977 27.96 71.6044 27.88C71.5244 27.7867 71.4844 27.68 71.4844 27.56L71.5044 27.44L75.8644 14.66C75.9177 14.4867 76.0177 14.3333 76.1644 14.2C76.311 14.0667 76.511 14 76.7644 14H82.3244C82.5777 14 82.7777 14.0667 82.9244 14.2C83.071 14.3333 83.171 14.4867 83.2244 14.66L87.5844 27.44L87.6044 27.56C87.6044 27.68 87.5577 27.7867 87.4644 27.88C87.3844 27.96 87.2844 28 87.1644 28H83.3844C82.9577 28 82.6577 27.7733 82.4844 27.32L81.9844 25.92H77.1044L76.6044 27.32ZM79.5444 17.86L78.1244 22.02H80.9644L79.5444 17.86ZM103.377 14C103.523 14 103.65 14.0533 103.757 14.16C103.863 14.2667 103.917 14.3933 103.917 14.54V17.76C103.917 17.9067 103.863 18.0333 103.757 18.14C103.65 18.2467 103.523 18.3 103.377 18.3H99.0766V27.46C99.0766 27.6067 99.0232 27.7333 98.9166 27.84C98.8099 27.9467 98.6832 28 98.5366 28H94.4166C94.2699 28 94.1432 27.9467 94.0366 27.84C93.9299 27.7333 93.8766 27.6067 93.8766 27.46V18.3H89.5766C89.4299 18.3 89.3032 18.2467 89.1966 18.14C89.0899 18.0333 89.0366 17.9067 89.0366 17.76V14.54C89.0366 14.3933 89.0899 14.2667 89.1966 14.16C89.3032 14.0533 89.4299 14 89.5766 14H103.377ZM119.949 24.1C120.095 24.1 120.222 24.1533 120.329 24.26C120.435 24.3667 120.489 24.4933 120.489 24.64V27.46C120.489 27.6067 120.435 27.7333 120.329 27.84C120.222 27.9467 120.095 28 119.949 28H107.309C107.162 28 107.035 27.9467 106.929 27.84C106.822 27.7333 106.769 27.6067 106.769 27.46V14.54C106.769 14.3933 106.822 14.2667 106.929 14.16C107.035 14.0533 107.162 14 107.309 14H119.749C119.895 14 120.022 14.0533 120.129 14.16C120.235 14.2667 120.289 14.3933 120.289 14.54V17.36C120.289 17.5067 120.235 17.6333 120.129 17.74C120.022 17.8467 119.895 17.9 119.749 17.9H111.969V19.16H118.649C118.795 19.16 118.922 19.2133 119.029 19.32C119.135 19.4267 119.189 19.5533 119.189 19.7V22.3C119.189 22.4467 119.135 22.5733 119.029 22.68C118.922 22.7867 118.795 22.84 118.649 22.84H111.969V24.1H119.949Z" fill="#ECECEC"/>
<path d="M160.952 24.64C161.304 24.64 161.608 24.768 161.864 25.024C162.12 25.28 162.248 25.584 162.248 25.936V32.704C162.248 33.056 162.12 33.36 161.864 33.616C161.608 33.872 161.304 34 160.952 34H130.616C130.264 34 129.96 33.872 129.704 33.616C129.448 33.36 129.32 33.056 129.32 32.704V1.696C129.32 1.344 129.448 1.04 129.704 0.783998C129.96 0.527998 130.264 0.399998 130.616 0.399998H160.472C160.824 0.399998 161.128 0.527998 161.384 0.783998C161.64 1.04 161.768 1.344 161.768 1.696V8.464C161.768 8.816 161.64 9.12 161.384 9.376C161.128 9.632 160.824 9.76 160.472 9.76H141.8V12.784H157.832C158.184 12.784 158.488 12.912 158.744 13.168C159 13.424 159.128 13.728 159.128 14.08V20.32C159.128 20.672 159 20.976 158.744 21.232C158.488 21.488 158.184 21.616 157.832 21.616H141.8V24.64H160.952Z" fill="#ECECEC"/>
<path d="M177.12 14.54C177.32 14.18 177.607 14 177.98 14H181.64C181.787 14 181.913 14.0533 182.02 14.16C182.127 14.2667 182.18 14.3933 182.18 14.54V27.46C182.18 27.6067 182.127 27.7333 182.02 27.84C181.913 27.9467 181.787 28 181.64 28H178.02C177.873 28 177.747 27.9467 177.64 27.84C177.533 27.7333 177.48 27.6067 177.48 27.46V21.26L176.02 24.14C175.98 24.2333 175.887 24.34 175.74 24.46C175.593 24.58 175.407 24.64 175.18 24.64H173.82C173.593 24.64 173.407 24.58 173.26 24.46C173.113 24.34 173.02 24.2333 172.98 24.14L171.52 21.26V27.46C171.52 27.6067 171.467 27.7333 171.36 27.84C171.253 27.9467 171.127 28 170.98 28H167.36C167.213 28 167.087 27.9467 166.98 27.84C166.873 27.7333 166.82 27.6067 166.82 27.46V14.54C166.82 14.3933 166.873 14.2667 166.98 14.16C167.087 14.0533 167.213 14 167.36 14H171.02C171.393 14 171.68 14.18 171.88 14.54L174.5 19.34L177.12 14.54ZM193.532 14C194.786 14 195.879 14.2133 196.812 14.64C197.746 15.0667 198.459 15.6467 198.952 16.38C199.446 17.1133 199.692 17.9333 199.692 18.84C199.692 20.3333 199.226 21.5067 198.292 22.36C197.359 23.2 195.772 23.62 193.532 23.62H190.892V27.46C190.892 27.6067 190.839 27.7333 190.732 27.84C190.626 27.9467 190.499 28 190.352 28H186.052C185.906 28 185.779 27.9467 185.672 27.84C185.566 27.7333 185.512 27.6067 185.512 27.46V14.54C185.512 14.3933 185.566 14.2667 185.672 14.16C185.779 14.0533 185.906 14 186.052 14H193.532ZM193.452 19.92C193.772 19.92 194.026 19.8267 194.212 19.64C194.399 19.44 194.492 19.18 194.492 18.86C194.492 18.5267 194.399 18.2533 194.212 18.04C194.026 17.8267 193.772 17.72 193.452 17.72H190.912V19.92H193.452ZM215.924 22.22C215.924 24.26 215.244 25.7667 213.884 26.74C212.538 27.7133 210.738 28.2 208.484 28.2C206.231 28.2 204.424 27.7133 203.064 26.74C201.718 25.7667 201.044 24.2467 201.044 22.18V19.82C201.044 18.46 201.364 17.3333 202.004 16.44C202.658 15.5333 203.544 14.8667 204.664 14.44C205.784 14.0133 207.058 13.8 208.484 13.8C209.911 13.8 211.178 14.0133 212.284 14.44C213.404 14.8667 214.291 15.5267 214.944 16.42C215.598 17.3133 215.924 18.4333 215.924 19.78V22.22ZM206.444 22.6C206.444 23.1467 206.624 23.5667 206.984 23.86C207.358 24.1533 207.858 24.3 208.484 24.3C209.111 24.3 209.604 24.1533 209.964 23.86C210.338 23.5533 210.524 23.1267 210.524 22.58V19.42C210.524 18.8733 210.338 18.4533 209.964 18.16C209.604 17.8533 209.111 17.7 208.484 17.7C207.858 17.7 207.358 17.8467 206.984 18.14C206.624 18.4333 206.444 18.8533 206.444 19.4V22.6ZM233.417 27.38C233.443 27.4333 233.457 27.4933 233.457 27.56C233.457 27.68 233.41 27.7867 233.317 27.88C233.237 27.96 233.137 28 233.017 28H228.477C228.29 28 228.117 27.9533 227.957 27.86C227.81 27.7667 227.703 27.6467 227.637 27.5L225.877 23.54H224.197V27.46C224.197 27.6067 224.143 27.7333 224.037 27.84C223.93 27.9467 223.803 28 223.657 28H219.337C219.19 28 219.063 27.9467 218.957 27.84C218.85 27.7333 218.797 27.6067 218.797 27.46V14.54C218.797 14.3933 218.85 14.2667 218.957 14.16C219.063 14.0533 219.19 14 219.337 14H227.117C228.317 14 229.363 14.1933 230.257 14.58C231.163 14.9667 231.857 15.5267 232.337 16.26C232.817 16.9933 233.057 17.8533 233.057 18.84C233.057 20.6533 232.357 21.9667 230.957 22.78L233.417 27.38ZM226.697 19.84C226.99 19.84 227.217 19.7467 227.377 19.56C227.537 19.36 227.617 19.1133 227.617 18.82C227.617 18.5267 227.537 18.2733 227.377 18.06C227.23 17.8333 227.003 17.72 226.697 17.72H224.197V19.84H226.697ZM245.189 23.9H248.809C248.955 23.9 249.082 23.9533 249.189 24.06C249.295 24.1667 249.349 24.2933 249.349 24.44V27.46C249.349 27.6067 249.295 27.7333 249.189 27.84C249.082 27.9467 248.955 28 248.809 28H236.129C235.982 28 235.855 27.9467 235.749 27.84C235.642 27.7333 235.589 27.6067 235.589 27.46V24.44C235.589 24.2933 235.642 24.1667 235.749 24.06C235.855 23.9533 235.982 23.9 236.129 23.9H239.789V18.1H236.129C235.982 18.1 235.855 18.0467 235.749 17.94C235.642 17.8333 235.589 17.7067 235.589 17.56V14.54C235.589 14.3933 235.642 14.2667 235.749 14.16C235.855 14.0533 235.982 14 236.129 14H248.809C248.955 14 249.082 14.0533 249.189 14.16C249.295 14.2667 249.349 14.3933 249.349 14.54V17.56C249.349 17.7067 249.295 17.8333 249.189 17.94C249.082 18.0467 248.955 18.1 248.809 18.1H245.189V23.9ZM259.461 28.2C257.221 28.2 255.441 27.7133 254.121 26.74C252.814 25.7667 252.161 24.2467 252.161 22.18V14.54C252.161 14.3933 252.214 14.2667 252.321 14.16C252.428 14.0533 252.554 14 252.701 14H256.881C257.028 14 257.154 14.0533 257.261 14.16C257.368 14.2667 257.421 14.3933 257.421 14.54V22.5C257.421 23.0467 257.601 23.4667 257.961 23.76C258.334 24.0533 258.834 24.2 259.461 24.2C260.088 24.2 260.581 24.0533 260.941 23.76C261.314 23.4667 261.501 23.0467 261.501 22.5V14.54C261.501 14.3933 261.554 14.2667 261.661 14.16C261.768 14.0533 261.894 14 262.041 14H266.221C266.368 14 266.494 14.0533 266.601 14.16C266.708 14.2667 266.761 14.3933 266.761 14.54V22.18C266.761 24.2467 266.101 25.7667 264.781 26.74C263.474 27.7133 261.701 28.2 259.461 28.2ZM279.073 14.54C279.273 14.18 279.56 14 279.933 14H283.593C283.74 14 283.866 14.0533 283.973 14.16C284.08 14.2667 284.133 14.3933 284.133 14.54V27.46C284.133 27.6067 284.08 27.7333 283.973 27.84C283.866 27.9467 283.74 28 283.593 28H279.973C279.826 28 279.7 27.9467 279.593 27.84C279.486 27.7333 279.433 27.6067 279.433 27.46V21.26L277.973 24.14C277.933 24.2333 277.84 24.34 277.693 24.46C277.546 24.58 277.36 24.64 277.133 24.64H275.773C275.546 24.64 275.36 24.58 275.213 24.46C275.066 24.34 274.973 24.2333 274.933 24.14L273.473 21.26V27.46C273.473 27.6067 273.42 27.7333 273.313 27.84C273.206 27.9467 273.08 28 272.933 28H269.313C269.166 28 269.04 27.9467 268.933 27.84C268.826 27.7333 268.773 27.6067 268.773 27.46V14.54C268.773 14.3933 268.826 14.2667 268.933 14.16C269.04 14.0533 269.166 14 269.313 14H272.973C273.346 14 273.633 14.18 273.833 14.54L276.453 19.34L279.073 14.54Z" fill="#ECECEC"/>
</svg>
